<svg viewBox="0 0 200 85" fill="none" xmlns="http://www.w3.org/2000/svg"><g clip-path="url(#clip0_431_433)"><path d="M14.842 53.264v3.791H4.562v5.975h9.766v3.727H4.562v6.81h10.601v3.791H0V53.264h14.842zm11.951 10.537c-2.763 0-3.727 2.314-3.727 5.14v8.418H18.57V60.46h4.497l-.064 2.57h.128c.9-1.799 2.635-2.89 5.076-2.89 4.883 0 6.104 3.148 6.104 7.195V77.36h-4.497V68.3c0-2.506-.45-4.498-3.02-4.498zm19.981 10.537c2.25 0 4.305-1.027 5.076-1.734l1.735 2.377c-.964.964-3.47 2.699-7.582 2.699-5.075 0-8.866-3.085-8.866-8.546 0-5.397 3.919-9.06 8.738-9.06 5.204 0 8.352 3.406 8.352 7.904 0 .9-.064 2.248-.064 2.248h-12.4c.45 2.828 2.506 4.112 5.011 4.112zM41.7 67.465h8.095c-.064-1.864-.77-3.984-3.92-3.984-2.633 0-4.047 1.863-4.175 3.984zm19.981-7.005l-.064 2.699h.064c.643-1.8 2.313-3.02 4.177-3.02 1.156 0 1.798.321 1.798.321l-.32 3.855h-.194c-.513-.128-1.284-.192-1.863-.192-1.35 0-2.313.578-2.955 1.67-.45.835-.643 1.992-.643 3.277v8.289h-4.433V60.46h4.433zm14.842 16.384c-4.24 0-7.903-2.698-7.903-8.095 0-4.69 3.277-8.546 8.289-8.546 2.248 0 4.176.836 5.397 2.635h.064l-.064-2.313h4.433v13.364c0 3.726-.77 5.782-2.184 7.325-1.478 1.541-3.599 2.955-7.71 2.955-3.984 0-7.004-1.927-7.84-2.506l1.864-3.084c1.092.771 3.855 1.992 5.975 1.992 2.378 0 3.663-.771 4.305-1.478.643-.707 1.157-2.12 1.157-3.983v-.836h-.064c-1.157 1.607-3.149 2.57-5.719 2.57zm1.285-13.171c-2.955 0-4.69 2.184-4.69 4.947 0 2.57 1.67 4.69 4.626 4.69 3.213 0 4.819-2.12 4.819-4.69 0-2.441-1.8-4.947-4.755-4.947zm15.614-3.213l4.497 11.951 4.369-11.95h4.626l-7.838 19.21c-1.221 2.956-2.635 4.37-5.012 4.37s-3.983-.707-3.983-.707l.899-3.405s1.157.45 2.056.45c.9 0 1.606-.258 1.928-1.093l.706-1.735-7.003-17.026h4.755v-.065zm18.119-7.196l6.232 17.926 6.232-17.926h4.626L119.7 77.358h-4.047l-8.931-24.094h4.819zm18.824 2.056c0-1.413 1.093-2.505 2.699-2.505 1.606 0 2.698 1.028 2.698 2.505 0 1.478-1.092 2.506-2.698 2.506-1.606 0-2.699-1.028-2.699-2.506zm4.883 5.14v16.898h-4.497V60.46h4.497zm10.088 3.084c-1.478 0-2.184.579-2.184 1.35 0 .706.578 1.349 2.441 1.927l1.157.386c3.726 1.22 5.076 2.57 5.076 5.011 0 3.213-2.57 5.59-6.682 5.59-2.571 0-5.462-1.028-6.811-2.634l1.799-3.02c1.992 1.542 3.726 2.313 5.14 2.313 1.671 0 2.442-.642 2.442-1.606 0-.9-.643-1.35-2.827-2.12l-1.928-.643c-2.506-.835-3.791-2.313-3.791-4.819 0-3.084 2.763-5.076 6.04-5.076 3.02 0 4.69.771 6.104 1.8l-1.928 2.955c-1.092-.771-2.506-1.414-4.048-1.414zm8.932-8.224c0-1.413 1.092-2.505 2.698-2.505 1.606 0 2.699 1.028 2.699 2.505 0 1.478-1.093 2.506-2.699 2.506-1.606 0-2.698-1.028-2.698-2.506zm4.947 5.14v16.898h-4.498V60.46h4.498zm3.212 8.546c0-5.333 3.983-8.803 9.188-8.803 5.14 0 9.123 3.47 9.123 8.803s-3.983 8.738-9.123 8.738c-5.205 0-9.188-3.405-9.188-8.738zm9.188-5.269c-2.956 0-4.562 2.249-4.562 5.14 0 2.892 1.606 5.14 4.562 5.14 2.891 0 4.562-2.248 4.562-5.14 0-2.891-1.735-5.14-4.562-5.14zm20.368.064c-2.763 0-3.727 2.314-3.727 5.14v8.418h-4.497V60.46h4.497l-.064 2.57h.129c.899-1.799 2.634-2.89 5.075-2.89 4.819 0 6.104 3.148 6.104 7.195V77.36h-4.497V68.3c0-2.506-.45-4.498-3.02-4.498z" fill="#231F20"/><path d="M93.742 14.2l6.811 6.81.128.129.964.963 5.911 5.912c1.542 1.542 3.598 2.377 5.783 2.377 2.184 0 4.24-.835 5.782-2.377l.065-.065.064-.064c1.478-1.542 2.313-3.534 2.313-5.654 0-2.185-.835-4.176-2.313-5.718l-.064-.065c-1.542-1.542-3.599-2.377-5.783-2.377-2.185 0-4.241.835-5.783 2.377l-3.019 3.02c-.322.321-.707.45-1.093.45a1.55 1.55 0 01-1.092-.45 1.506 1.506 0 01-.45-1.092c0-.45.193-.835.45-1.092l3.02-3.02c2.12-2.12 4.947-3.341 7.967-3.341 2.313 0 4.498.707 6.361 1.927C116.102 5.27 108.456 0 99.524 0c-8.866 0-16.512 5.204-20.11 12.786 1.863-1.22 3.984-1.928 6.297-1.928 3.02 0 5.847 1.157 8.031 3.341z" fill="#39B54A"/><path d="M105.307 30.198L91.493 16.384c-1.542-1.542-3.598-2.377-5.782-2.377-2.185 0-4.24.835-5.783 2.377l-.064.064c-3.084 3.149-3.084 8.289 0 11.437l.064.064c1.542 1.542 3.598 2.378 5.783 2.378 2.184 0 4.24-.836 5.782-2.378l3.084-3.148c.322-.321.707-.45 1.093-.45.45 0 .835.193 1.092.45.321.321.45.707.45 1.092 0 .386-.193.836-.45 1.093l-3.084 3.212c-2.12 2.12-4.947 3.341-7.967 3.341-2.25 0-4.434-.642-6.297-1.927 3.534 7.517 11.18 12.786 20.11 12.786 8.932 0 16.578-5.269 20.111-12.786-1.863 1.285-4.048 1.927-6.361 1.927-3.019-.064-5.846-1.22-7.967-3.34z" fill="#39B54A"/></g><defs><clipPath id="clip0_431_433"><path fill="#fff" d="M0 0h199.5v84.169H0z"/></clipPath></defs></svg>